<svg width="17" height="17" viewBox="0 0 17 17" fill="none" xmlns="http://www.w3.org/2000/svg">
<path d="M0 6.15236C0 3.99884 0 2.92208 0.419105 2.09954C0.787762 1.37601 1.37601 0.787762 2.09954 0.419105C2.92208 0 3.99884 0 6.15236 0H10.8476C13.0012 0 14.0779 0 14.9004 0.419105C15.624 0.787762 16.2122 1.37601 16.5809 2.09954C17 2.92208 17 3.99884 17 6.15236V10.8476C17 13.0012 17 14.0779 16.5809 14.9004C16.2122 15.624 15.624 16.2122 14.9004 16.5809C14.0779 17 13.0012 17 10.8476 17H6.15236C3.99884 17 2.92208 17 2.09954 16.5809C1.37601 16.2122 0.787762 15.624 0.419105 14.9004C0 14.0779 0 13.0012 0 10.8476V6.15236Z" fill="white"/>
<path d="M0 6.15236C0 3.99884 0 2.92208 0.419105 2.09954C0.787762 1.37601 1.37601 0.787762 2.09954 0.419105C2.92208 0 3.99884 0 6.15236 0H10.8476C13.0012 0 14.0779 0 14.9004 0.419105C15.624 0.787762 16.2122 1.37601 16.5809 2.09954C17 2.92208 17 3.99884 17 6.15236V10.8476C17 13.0012 17 14.0779 16.5809 14.9004C16.2122 15.624 15.624 16.2122 14.9004 16.5809C14.0779 17 13.0012 17 10.8476 17H6.15236C3.99884 17 2.92208 17 2.09954 16.5809C1.37601 16.2122 0.787762 15.624 0.419105 14.9004C0 14.0779 0 13.0012 0 10.8476V6.15236Z" fill="url(#paint0_radial_25_99)"/>
<path d="M0 6.15236C0 3.99884 0 2.92208 0.419105 2.09954C0.787762 1.37601 1.37601 0.787762 2.09954 0.419105C2.92208 0 3.99884 0 6.15236 0H10.8476C13.0012 0 14.0779 0 14.9004 0.419105C15.624 0.787762 16.2122 1.37601 16.5809 2.09954C17 2.92208 17 3.99884 17 6.15236V10.8476C17 13.0012 17 14.0779 16.5809 14.9004C16.2122 15.624 15.624 16.2122 14.9004 16.5809C14.0779 17 13.0012 17 10.8476 17H6.15236C3.99884 17 2.92208 17 2.09954 16.5809C1.37601 16.2122 0.787762 15.624 0.419105 14.9004C0 14.0779 0 13.0012 0 10.8476V6.15236Z" fill="url(#paint1_radial_25_99)"/>
<path d="M0 6.15236C0 3.99884 0 2.92208 0.419105 2.09954C0.787762 1.37601 1.37601 0.787762 2.09954 0.419105C2.92208 0 3.99884 0 6.15236 0H10.8476C13.0012 0 14.0779 0 14.9004 0.419105C15.624 0.787762 16.2122 1.37601 16.5809 2.09954C17 2.92208 17 3.99884 17 6.15236V10.8476C17 13.0012 17 14.0779 16.5809 14.9004C16.2122 15.624 15.624 16.2122 14.9004 16.5809C14.0779 17 13.0012 17 10.8476 17H6.15236C3.99884 17 2.92208 17 2.09954 16.5809C1.37601 16.2122 0.787762 15.624 0.419105 14.9004C0 14.0779 0 13.0012 0 10.8476V6.15236Z" fill="url(#paint2_radial_25_99)"/>
<path d="M0 6.15236C0 3.99884 0 2.92208 0.419105 2.09954C0.787762 1.37601 1.37601 0.787762 2.09954 0.419105C2.92208 0 3.99884 0 6.15236 0H10.8476C13.0012 0 14.0779 0 14.9004 0.419105C15.624 0.787762 16.2122 1.37601 16.5809 2.09954C17 2.92208 17 3.99884 17 6.15236V10.8476C17 13.0012 17 14.0779 16.5809 14.9004C16.2122 15.624 15.624 16.2122 14.9004 16.5809C14.0779 17 13.0012 17 10.8476 17H6.15236C3.99884 17 2.92208 17 2.09954 16.5809C1.37601 16.2122 0.787762 15.624 0.419105 14.9004C0 14.0779 0 13.0012 0 10.8476V6.15236Z" fill="url(#paint3_radial_25_99)"/>
<path d="M0 6.15236C0 3.99884 0 2.92208 0.419105 2.09954C0.787762 1.37601 1.37601 0.787762 2.09954 0.419105C2.92208 0 3.99884 0 6.15236 0H10.8476C13.0012 0 14.0779 0 14.9004 0.419105C15.624 0.787762 16.2122 1.37601 16.5809 2.09954C17 2.92208 17 3.99884 17 6.15236V10.8476C17 13.0012 17 14.0779 16.5809 14.9004C16.2122 15.624 15.624 16.2122 14.9004 16.5809C14.0779 17 13.0012 17 10.8476 17H6.15236C3.99884 17 2.92208 17 2.09954 16.5809C1.37601 16.2122 0.787762 15.624 0.419105 14.9004C0 14.0779 0 13.0012 0 10.8476V6.15236Z" fill="url(#paint4_radial_25_99)"/>
<path d="M0 6.15236C0 3.99884 0 2.92208 0.419105 2.09954C0.787762 1.37601 1.37601 0.787762 2.09954 0.419105C2.92208 0 3.99884 0 6.15236 0H10.8476C13.0012 0 14.0779 0 14.9004 0.419105C15.624 0.787762 16.2122 1.37601 16.5809 2.09954C17 2.92208 17 3.99884 17 6.15236V10.8476C17 13.0012 17 14.0779 16.5809 14.9004C16.2122 15.624 15.624 16.2122 14.9004 16.5809C14.0779 17 13.0012 17 10.8476 17H6.15236C3.99884 17 2.92208 17 2.09954 16.5809C1.37601 16.2122 0.787762 15.624 0.419105 14.9004C0 14.0779 0 13.0012 0 10.8476V6.15236Z" fill="url(#paint5_radial_25_99)"/>
<path d="M0 6.15236C0 3.99884 0 2.92208 0.419105 2.09954C0.787762 1.37601 1.37601 0.787762 2.09954 0.419105C2.92208 0 3.99884 0 6.15236 0H10.8476C13.0012 0 14.0779 0 14.9004 0.419105C15.624 0.787762 16.2122 1.37601 16.5809 2.09954C17 2.92208 17 3.99884 17 6.15236V10.8476C17 13.0012 17 14.0779 16.5809 14.9004C16.2122 15.624 15.624 16.2122 14.9004 16.5809C14.0779 17 13.0012 17 10.8476 17H6.15236C3.99884 17 2.92208 17 2.09954 16.5809C1.37601 16.2122 0.787762 15.624 0.419105 14.9004C0 14.0779 0 13.0012 0 10.8476V6.15236Z" fill="url(#paint6_radial_25_99)"/>
<path d="M13.6427 5.12185C12.7431 4.12658 11.4752 3.56718 10.1577 3.57444C8.86849 3.57444 7.55809 4.14111 6.71519 5.05646C6.55934 5.04195 6.40349 5.02744 6.25474 5.02744C3.726 5.02744 2.16058 7.2069 2.16058 9.22656C2.16767 10.3163 2.5785 11.3625 3.30808 12.1616C4.07308 12.9971 5.13559 13.4693 6.25474 13.4693H10.1577C12.8068 13.4693 14.9602 11.239 14.9602 8.50734C14.946 7.2505 14.4785 6.04453 13.6427 5.12185ZM6.17684 12.7573C4.29975 12.7573 2.78392 11.1954 2.78392 9.27016C2.78392 7.35948 4.29267 5.80477 6.16269 5.79026C6.99144 5.79026 7.86269 6.06633 8.41519 6.66934L9.83894 8.16589C10.0727 8.41293 10.0656 8.80521 9.82474 9.04497C9.58394 9.28473 9.20144 9.27744 8.96769 9.0304L7.57934 7.56293C6.67269 6.76375 5.30559 6.86545 4.52642 7.79541C4.18642 8.19497 4.00225 8.7108 4.00225 9.24114C4.00225 10.4616 5.01519 11.4933 6.21224 11.4933H6.48849C6.88519 12.0599 7.99724 12.7573 7.99724 12.7573H6.17684ZM13.1327 11.5078C12.3747 12.3215 11.3264 12.7791 10.2285 12.7864C9.18724 12.7864 8.12474 12.3069 7.31019 11.4787L5.45434 9.5608C5.22059 9.31375 5.22769 8.92147 5.46144 8.68171C5.57474 8.56545 5.72349 8.50734 5.88644 8.50734C6.04934 8.50734 6.20519 8.57273 6.31849 8.69623L8.16724 10.5924C8.75519 11.1954 9.50599 11.5369 10.2285 11.5369C11.0006 11.5369 11.7372 11.2099 12.2685 10.6287C12.8139 10.0548 13.1185 9.28473 13.1185 8.48555C13.1185 6.84365 11.8152 5.51419 10.2143 5.5069C9.60519 5.5069 9.10224 5.6304 8.60644 5.98643C8.3257 5.69852 7.72099 5.41249 7.44474 5.35433C8.20974 4.6206 9.16599 4.26462 10.2143 4.26462C12.4881 4.26462 14.3227 6.15351 14.3297 8.48555C14.3297 9.61161 13.9047 10.7014 13.1327 11.5078Z" fill="white"/>
<defs>
<radialGradient id="paint0_radial_25_99" cx="0" cy="0" r="1" gradientUnits="userSpaceOnUse" gradientTransform="translate(14.1313 14.5299) rotate(46.87) scale(10.1537 10.4002)">
<stop stop-color="#68E048"/>
<stop offset="1" stop-color="#5CE049" stop-opacity="0"/>
</radialGradient>
<radialGradient id="paint1_radial_25_99" cx="0" cy="0" r="1" gradientUnits="userSpaceOnUse" gradientTransform="translate(2.69166 14.4573) rotate(137.364) scale(10.3505 10.6414)">
<stop stop-color="#308CFE"/>
<stop offset="1" stop-color="#2F8BFF" stop-opacity="0"/>
</radialGradient>
<radialGradient id="paint2_radial_25_99" cx="0" cy="0" r="1" gradientUnits="userSpaceOnUse" gradientTransform="translate(13.8125 9.51709) rotate(7.9001) scale(6.07853 6.3883)">
<stop stop-color="#FDD511"/>
<stop offset="1" stop-color="#FDD20D" stop-opacity="0"/>
</radialGradient>
<radialGradient id="paint3_radial_25_99" cx="0" cy="0" r="1" gradientUnits="userSpaceOnUse" gradientTransform="translate(2.90416 6.13888) rotate(-127.134) scale(8.97612 9.14606)">
<stop stop-color="#F928C2"/>
<stop offset="1" stop-color="#F922BC" stop-opacity="0"/>
</radialGradient>
<radialGradient id="paint4_radial_25_99" cx="0" cy="0" r="1" gradientUnits="userSpaceOnUse" gradientTransform="translate(9.63335 2.83334) rotate(-63.404) scale(9.01838 9.11224)">
<stop stop-color="#F90700"/>
<stop offset="1" stop-color="#F90700" stop-opacity="0"/>
</radialGradient>
<radialGradient id="paint5_radial_25_99" cx="0" cy="0" r="1" gradientUnits="userSpaceOnUse" gradientTransform="translate(16.0791 2.47009) rotate(-65.6935) scale(5.42068 5.46838)">
<stop stop-color="#FB4200"/>
<stop offset="1" stop-color="#FB4300" stop-opacity="0"/>
</radialGradient>
<radialGradient id="paint6_radial_25_99" cx="0" cy="0" r="1" gradientUnits="userSpaceOnUse" gradientTransform="translate(1.77084 2.07051) rotate(-133.672) scale(4.82118 4.94058)">
<stop stop-color="#FE0D88"/>
<stop offset="1" stop-color="#FE0D88" stop-opacity="0"/>
</radialGradient>
</defs>
</svg>
