<svg width="16" height="16" viewBox="0 0 16 16" fill="none" xmlns="http://www.w3.org/2000/svg">
<path d="M7.58263 15.9891C4.79393 15.849 2.24523 14.2374 0.94322 11.7553C-0.454796 9.18175 -0.304128 5.84247 1.43123 3.44774C3.16524 0.887577 6.33128 -0.47055 9.52065 0.148478C12.576 0.720145 15.088 3.14623 15.7594 6.09262C16.5074 8.99031 15.4774 12.2115 13.1427 14.124C11.6167 15.4267 9.61265 16.0951 7.58263 15.9891ZM12.7194 10.6193C12.016 10.1975 11.3113 9.77789 10.6053 9.36052C10.0033 10.3498 8.68197 10.8601 7.55863 10.4712C6.20928 10.0449 5.29593 8.47867 5.89994 7.04651C6.43395 5.70639 7.75996 5.24078 8.80464 5.40288C9.50866 5.53587 10.1347 5.93444 10.5533 6.5162C11.2713 6.09528 11.972 5.70372 12.6687 5.27881C11.3153 3.19893 8.56797 2.41447 6.23128 3.44173C4.14459 4.39095 2.97124 6.56356 3.30591 8.72415C3.66592 11.1242 5.79261 13.0507 8.44997 12.996C9.30337 12.9881 10.1412 12.7665 10.887 12.3513C11.6328 11.9361 12.2627 11.3407 12.7194 10.6193Z" fill="#3B82F6"/>
</svg>
