<svg width="22" height="12" viewBox="0 0 22 12" fill="none" xmlns="http://www.w3.org/2000/svg">
<path d="M9.98774 8.10096C9.99991 8.10263 10.0025 8.10312 10.0144 8.10466C10.2125 8.13159 10.4072 8.16729 10.5563 8.23391C10.6944 8.29489 10.7753 8.37207 10.8493 8.50963C10.9617 8.71824 10.969 9.01048 10.8674 9.23167C10.7915 9.39625 10.625 9.53426 10.4729 9.60741C10.315 9.68397 10.1594 9.72042 9.98097 9.74079C9.66887 9.77516 9.33181 9.7105 9.05098 9.57467C8.88484 9.49354 8.68196 9.35382 8.57961 9.17381C8.50435 9.04194 8.50675 8.87037 8.59831 8.74503C8.74426 8.54527 9.05686 8.5013 9.2923 8.50963C9.4718 8.51659 9.795 8.57207 9.96543 8.6327C10.0127 8.64977 10.1869 8.71764 10.2173 8.74877C10.2387 8.77042 10.2526 8.80188 10.243 8.83097C10.204 8.95007 9.91459 9.01286 9.83102 9.02547C9.60728 9.05974 9.49118 8.97506 9.23682 8.87463C9.17368 8.84991 9.08953 8.82247 9.02524 8.81653C8.90977 8.80553 8.77029 8.83787 8.74824 8.96393C8.73729 9.0289 8.81347 9.08966 8.87158 9.1152C9.00802 9.17381 9.11894 9.19489 9.25323 9.19669C9.64993 9.20323 10.0958 9.13791 10.4202 8.90801C10.4647 8.87631 10.5083 8.82991 10.5087 8.77141C10.5102 8.65329 10.3031 8.58107 10.3031 8.58107C10.0845 8.48994 9.68064 8.44559 9.47259 8.42845C9.25426 8.40956 8.91074 8.38129 8.82826 8.36914C8.74334 8.35702 8.65109 8.33988 8.57755 8.30693C8.50367 8.27355 8.4314 8.19886 8.40995 8.11623C8.37191 7.96727 8.42044 7.78449 8.50316 7.6655C8.71997 7.3538 9.22784 7.23542 9.60725 7.18841C9.97448 7.14271 10.5681 7.14317 10.9288 7.33484C10.9845 7.36469 11.013 7.39245 11.0013 7.45199C10.9778 7.56375 10.8938 7.63577 10.792 7.66734C10.6852 7.70133 10.4643 7.71458 10.3672 7.72069C9.93237 7.74507 9.40688 7.73229 8.99268 7.84524C8.96023 7.8545 8.90418 7.86961 8.88596 7.88996C8.82113 7.96034 9.0063 7.98045 9.04597 7.9885C9.05776 7.99132 9.06005 7.99171 9.07235 7.99305L9.98774 8.10096ZM7.40079 6.16195C7.40079 6.16195 7.47152 6.05587 7.53079 5.97539C7.6387 5.82883 7.83399 5.62557 7.98106 5.49973C8.02605 5.4613 8.07909 5.41776 8.07909 5.41776C8.07909 5.41776 7.99613 5.42634 7.94912 5.43596C7.83753 5.45767 7.67392 5.56641 7.59217 5.63668C7.45726 5.75216 7.30892 5.93989 7.37604 6.10669C7.38579 6.13025 7.40079 6.16195 7.40079 6.16195ZM8.15072 6.36264C8.36384 6.34794 8.56347 6.28658 8.74932 6.18349C8.93159 6.0815 9.19968 5.88262 9.17188 5.64883C9.16343 5.57315 9.11388 5.51601 9.05134 5.48935C8.97005 5.45413 8.92765 5.4598 8.82381 5.49067C8.74838 5.51274 8.71439 5.52613 8.64315 5.5669C8.43408 5.68836 8.13766 5.94831 7.97673 6.15577C7.93959 6.2047 7.90197 6.25941 7.87254 6.29692C7.85397 6.32004 7.83954 6.34128 7.84134 6.34693C7.84776 6.37045 8.0675 6.36829 8.15072 6.36264ZM7.60812 6.76119C7.58614 6.78444 7.56289 6.8405 7.53877 6.88109C7.52588 6.9028 7.50201 6.93076 7.48622 6.94198C7.43075 6.98277 7.38376 6.98466 7.33021 6.93754C7.25513 6.87112 7.2117 6.7684 7.20862 6.66848C7.20702 6.62488 7.2145 6.57663 7.20624 6.53987C7.19258 6.47781 7.13048 6.41388 7.09699 6.35454C7.05768 6.28465 7.02587 6.16277 7.02191 6.08407C7.00842 5.83871 7.13776 5.61268 7.30577 5.43442C7.47497 5.25415 7.69634 5.10433 7.93708 5.00234C8.16465 4.90648 8.49813 4.84114 8.74802 4.92769C8.82938 4.95556 8.94272 5.0248 8.99968 5.09733C9.01178 5.11238 9.02164 5.12866 9.03405 5.13662C9.04515 5.14371 9.07422 5.1465 9.09734 5.15075C9.17704 5.16456 9.2918 5.22491 9.33868 5.2651C9.43286 5.34635 9.48445 5.42401 9.50832 5.53671C9.55619 5.76349 9.4256 6.01229 9.27686 6.16371C9.02216 6.42432 8.77064 6.60756 8.44482 6.73512C8.30171 6.79102 8.07883 6.84325 7.91647 6.82864C7.86605 6.82446 7.81426 6.81117 7.76515 6.80792C7.7401 6.80576 7.64849 6.78213 7.6387 6.77547C7.62655 6.76614 7.61087 6.75802 7.60812 6.76119ZM7.89911 7.26397C7.90903 7.26565 7.92432 7.27009 7.93748 7.27515C8.0517 7.3186 8.09869 7.42431 8.12683 7.54043C8.19204 7.81006 8.21987 8.40656 8.23072 8.64005C8.23868 8.8153 8.24306 8.98771 8.25041 9.16094C8.25663 9.30764 8.26834 9.50267 8.23776 9.6401C8.22665 9.68954 8.19358 9.74702 8.14624 9.77646C8.09201 9.81117 7.96856 9.81381 7.90072 9.79982C7.73347 9.76524 7.67913 9.6577 7.65526 9.49231C7.59853 9.09765 7.62585 8.3231 7.65933 7.99627C7.67047 7.88831 7.71112 7.54243 7.76749 7.3974C7.78674 7.3485 7.82772 7.25 7.89911 7.26397ZM2.81132 7.92061C2.81132 7.92061 2.56241 7.93823 2.39109 7.95724C2.17314 7.98071 1.76361 8.05142 1.52722 8.13583C1.45632 8.16122 1.31228 8.2215 1.29977 8.29441C1.28661 8.36998 1.33351 8.42907 1.38568 8.49021C1.41584 8.52572 1.58656 8.68995 1.63443 8.72985C1.83509 8.89738 2.24198 9.15575 2.54166 9.28122C2.64462 9.32381 2.81495 9.38479 2.81495 9.38479C2.81495 9.38479 2.8023 8.89982 2.80456 8.42212C2.80588 8.17011 2.81132 7.92061 2.81132 7.92061ZM7.37529 8.11361C7.38955 8.2439 7.35606 8.49023 7.35026 8.52272C7.33965 8.59761 7.28318 8.77036 7.27381 8.79143C7.22822 8.89642 7.18328 8.98244 7.13565 9.06823C7.05403 9.21513 6.85994 9.448 6.74473 9.54766C6.31628 9.91798 5.65303 10.1288 5.08402 10.1983C4.69792 10.2449 4.25427 10.2381 3.84516 10.1624C3.70436 10.1368 3.49483 10.0885 3.49483 10.0885C3.49483 10.0885 3.49551 10.1723 3.4888 10.2312C3.48555 10.2581 3.46531 10.3288 3.45396 10.3517C3.42421 10.4132 3.37537 10.4449 3.30436 10.4585C3.21864 10.4744 3.12774 10.4797 3.04854 10.4459C2.9185 10.3912 2.87182 10.2695 2.84916 10.1292C2.83083 10.017 2.81165 9.82189 2.81165 9.82189C2.81165 9.82189 2.71436 9.77582 2.63325 9.73534C2.3841 9.61258 2.14747 9.46384 1.94045 9.31087C1.88309 9.26806 1.63669 9.0617 1.58231 9.01046C1.42981 8.86568 1.29262 8.72165 1.18825 8.53683C1.10711 8.39244 1.08375 8.26429 1.14546 8.1113C1.23055 7.89806 1.53629 7.7375 1.74553 7.646C1.89911 7.5782 2.37666 7.42226 2.57504 7.39336C2.66873 7.37996 2.81407 7.35393 2.823 7.34812C2.82665 7.34533 2.82918 7.34295 2.83182 7.33994C2.8364 7.33349 2.84412 7.12241 2.84262 7.04519C2.84069 6.96926 2.89881 6.47061 2.91749 6.36517C2.92723 6.30814 2.97042 6.08863 3.01451 6.03101C3.04335 5.99207 3.09434 5.99522 3.13592 6.02078C3.36345 6.16226 3.43257 6.65293 3.44949 6.90258C3.45961 7.05469 3.46465 7.28349 3.46465 7.28349C3.46465 7.28349 3.72566 7.27577 3.88621 7.28032C4.04223 7.28395 4.21421 7.30857 4.37615 7.33437C4.58348 7.36762 4.98759 7.45577 5.21936 7.57327C5.41021 7.67003 5.58885 7.83305 5.64673 8.00557C5.7005 8.16373 5.69245 8.27318 5.61055 8.41591C5.51845 8.57709 5.34426 8.69688 5.16764 8.70689C5.11508 8.70992 4.91726 8.68363 4.85639 8.63651C4.83252 8.61772 4.83375 8.58382 4.85097 8.56083C4.85751 8.55275 4.94997 8.50358 5.00456 8.4749C5.03034 8.46112 5.05431 8.4442 5.07592 8.42452C5.12127 8.38459 5.16208 8.34063 5.15752 8.28911C5.15125 8.22223 5.08048 8.18098 5.01303 8.15444C4.69654 8.02872 4.06463 7.92435 3.75927 7.90629C3.63975 7.89927 3.46973 7.89326 3.46973 7.89326L3.50568 9.57947C3.50568 9.57947 3.64624 9.60624 3.75701 9.6242C3.82056 9.63383 4.08986 9.65808 4.16143 9.65984C4.70633 9.67422 5.31449 9.62543 5.81455 9.38946C6.03409 9.28614 6.2355 9.15751 6.38798 8.98338C6.58895 8.75297 6.6942 8.43765 6.66634 8.10829C6.63581 7.74859 6.38266 7.32159 6.1805 7.0616C5.64636 6.37469 4.73079 5.80965 3.92528 5.47837C3.10292 5.14039 2.29016 4.94595 1.4174 4.91339C1.19241 4.90505 0.701829 4.9164 0.453845 4.985C0.418425 4.99499 0.382719 5.00691 0.34983 5.0143C0.323848 5.02066 0.282906 5.03787 0.271664 5.04695C0.267256 5.05066 0.263117 5.05467 0.259278 5.05896C0.259278 5.05896 0.274568 5.06741 0.289176 5.07359C0.315444 5.08506 0.426015 5.09192 0.483237 5.10239C0.534431 5.11203 0.587737 5.13891 0.608835 5.17642C0.628877 5.21208 0.631385 5.2402 0.607427 5.26994C0.551239 5.33828 0.339754 5.32675 0.246628 5.31201C0.14985 5.29659 0.0293563 5.26697 0.00722435 5.18271C-0.0184496 5.08347 0.0286963 4.98619 0.0796262 4.89625C0.181948 4.71631 0.328512 4.62273 0.543143 4.56412C0.847996 4.48023 1.23293 4.42158 1.5208 4.41058C2.17235 4.38596 2.78901 4.4999 3.4203 4.69156C3.7816 4.80082 4.25462 4.98414 4.60092 5.15088C4.84941 5.27069 5.24092 5.49102 5.46086 5.63501C5.53022 5.68079 5.93614 5.97905 5.9992 6.03147C6.13073 6.13901 6.30277 6.29358 6.42736 6.4172C6.66839 6.65605 6.96818 7.02217 7.11382 7.31277C7.14887 7.38236 7.17602 7.45082 7.22123 7.53147C7.23678 7.5591 7.30331 7.72437 7.31437 7.77211C7.32533 7.81934 7.34139 7.88877 7.34366 7.89152C7.34687 7.91689 7.37771 8.05888 7.37529 8.11361ZM15.5664 7.74078C15.2613 7.81114 14.4589 7.85021 14.4589 7.85021L14.3577 8.16714C14.3577 8.16714 14.7587 8.13291 15.0504 8.16338C15.0504 8.16338 15.1449 8.1524 15.156 8.27067C15.1598 8.38098 15.1466 8.49934 15.1466 8.49934C15.1466 8.49934 15.1406 8.57095 15.0391 8.58916C14.9291 8.60749 14.1749 8.63666 14.1749 8.63666L14.0527 9.04978C14.0527 9.04978 14.0073 9.14528 14.1091 9.11802C14.2036 9.09272 14.9939 8.94442 15.0968 8.96576C15.2071 8.99315 15.3292 9.14022 15.2939 9.27424C15.2519 9.44036 14.4631 9.94344 13.9827 9.90832C13.9827 9.90832 13.7303 9.9246 13.5169 9.58394C13.3182 9.2593 13.5922 8.64463 13.5922 8.64463C13.5922 8.64463 13.4666 8.35768 13.5576 8.26042C13.5576 8.26042 13.6118 8.21127 13.7697 8.20016L13.963 7.80018C13.963 7.80018 13.7428 7.81534 13.6118 7.65333C13.4898 7.49964 13.4795 7.429 13.5731 7.38656C13.6732 7.33715 14.5902 7.16977 15.2213 7.191C15.2213 7.191 15.4406 7.16946 15.6308 7.54989C15.6309 7.54991 15.723 7.70375 15.5664 7.74078ZM13.1928 9.27871C13.1119 9.46894 12.8983 9.67196 12.6329 9.54577C12.3709 9.41931 11.9535 8.56518 11.9535 8.56518C11.9535 8.56518 11.7951 8.24669 11.7647 8.2549C11.7647 8.2549 11.7304 8.1927 11.7094 8.54074C11.6876 8.88731 11.7136 9.56308 11.5754 9.66945C11.4444 9.7761 11.2858 9.73365 11.2036 9.60904C11.1289 9.48628 11.0977 9.19458 11.1385 8.68227C11.1865 8.16896 11.3057 7.62284 11.4581 7.45278C11.6102 7.28386 11.7323 7.40649 11.7799 7.45097C11.7799 7.45097 11.9834 7.63542 12.319 8.17704L12.3783 8.27723C12.3783 8.27723 12.6832 8.78892 12.7151 8.78774C12.7151 8.78774 12.74 8.81125 12.7622 8.79436C12.7942 8.78521 12.7813 8.62113 12.7813 8.62113C12.7813 8.62113 12.718 8.06348 12.4398 7.11959C12.4398 7.11959 12.3978 7.00189 12.4262 6.8916C12.4545 6.78015 12.5662 6.83247 12.5662 6.83247C12.5662 6.83247 12.9974 7.04928 13.2067 7.75132C13.4146 8.45358 13.2749 9.08704 13.1928 9.27871ZM17.8336 8.85824C17.6373 9.20072 17.0831 9.91783 16.3467 9.74852C16.1035 10.3382 15.8992 10.9348 15.7824 11.8275C15.7824 11.8275 15.7567 12.001 15.6126 11.9407C15.4697 11.8907 15.2344 11.6532 15.1868 11.3245C15.1356 10.8929 15.3277 10.1632 15.7205 9.32645C15.6059 9.14022 15.5278 8.87415 15.5947 8.49529C15.5947 8.49529 15.6933 7.79175 16.3999 7.15765C16.3999 7.15765 16.4846 7.0845 16.5337 7.10703C16.5878 7.12971 16.5628 7.35864 16.5198 7.46996C16.4752 7.58064 16.1607 8.12521 16.1607 8.12521C16.1607 8.12521 15.9645 8.49311 16.0197 8.78329C16.3903 8.21356 17.2326 7.06468 17.7548 7.42697C17.9301 7.55246 18.011 7.82541 18.011 8.11953C18.0111 8.37788 17.9488 8.65246 17.8336 8.85824ZM17.6812 7.95594C17.6812 7.95594 17.6521 7.72943 17.4307 7.97897C17.2402 8.18956 16.8967 8.5841 16.6201 9.12C16.9103 9.08742 17.1902 8.92999 17.2748 8.8498C17.4124 8.72772 17.7329 8.39651 17.6812 7.95594ZM21.8904 7.90437H20.5407C20.5138 7.44565 20.4584 6.99881 20.3714 6.53861C20.3671 6.51557 20.3549 6.49474 20.3369 6.47974C20.3189 6.46474 20.2962 6.4565 20.2728 6.45644H19.9616C19.9482 6.45648 19.9349 6.45949 19.9227 6.46526C19.9106 6.47104 19.8999 6.47943 19.8913 6.48984C19.8827 6.50029 19.8765 6.51252 19.8732 6.52564C19.8699 6.53877 19.8695 6.55247 19.872 6.56576C19.9605 7.01109 20.0164 7.44939 20.0441 7.90481H18.7456C18.6851 7.90481 18.636 7.9538 18.636 8.01406V8.29469C18.636 8.32377 18.6476 8.35165 18.6681 8.37222C18.6887 8.39279 18.7165 8.40437 18.7456 8.40443H20.0627C20.0635 8.47369 20.0642 8.5357 20.0642 8.59389C20.0642 8.99834 20.0467 9.33151 20.006 9.70749C20.0044 9.7218 20.0059 9.73628 20.0103 9.74996C20.0148 9.76365 20.0222 9.77621 20.032 9.7868C20.0414 9.7974 20.053 9.80589 20.0659 9.8117C20.0789 9.81752 20.0929 9.82053 20.1071 9.82054H20.3957C20.4228 9.82059 20.449 9.81053 20.469 9.79232C20.4891 9.77412 20.5017 9.74908 20.5043 9.7221C20.5438 9.34356 20.5607 9.00626 20.5607 8.59387C20.5607 8.5359 20.56 8.47366 20.5592 8.40441H21.8904C21.9507 8.40441 22 8.35506 22 8.29467V8.01404C22 7.98498 21.9884 7.95711 21.9678 7.93655C21.9473 7.916 21.9194 7.90442 21.8904 7.90437Z" fill="#273142"/>
<path d="M3.8437 4.14384C3.83429 4.15777 3.82823 4.1737 3.82602 4.19037C3.82381 4.20704 3.82549 4.22399 3.83094 4.2399C3.83642 4.25581 3.84544 4.27028 3.85732 4.2822C3.8692 4.29413 3.88364 4.3032 3.89954 4.30873L4.14147 4.39016C4.15551 4.39467 4.17015 4.39702 4.1849 4.39713C4.20699 4.39717 4.22875 4.39176 4.24826 4.38139C4.26777 4.37102 4.28442 4.356 4.29675 4.33766C5.08923 3.17345 6.16177 2.20411 7.39861 1.53443C8.67548 0.842972 10.1222 0.477223 11.5827 0.477223C13.3469 0.477223 15.049 0.99761 16.5052 1.98202C17.9262 2.94223 19.0297 4.28189 19.6965 5.85623C19.7062 5.87923 19.7225 5.89884 19.7433 5.91263C19.7641 5.92642 19.7885 5.93376 19.8135 5.93374H20.1024C20.1189 5.93368 20.1351 5.92958 20.1497 5.92181C20.1642 5.91404 20.1766 5.90282 20.1858 5.88914C20.1951 5.87546 20.2009 5.8597 20.2026 5.84326C20.2043 5.82682 20.202 5.81021 20.1957 5.7949C19.5081 4.10215 18.3453 2.65916 16.8326 1.62245C15.2841 0.561109 13.4687 0 11.5827 0C8.46488 0 5.57169 1.54915 3.8437 4.14384Z" fill="#273142"/>
</svg>
