<svg width="15" height="15" viewBox="0 0 15 15" fill="none" xmlns="http://www.w3.org/2000/svg">
<path d="M7.76305 0.0077466C7.56227 0.0198389 7.36221 0.0433924 7.16367 0.0783112C5.36554 0.388658 3.63053 1.44987 2.3899 2.9372C2.10419 3.27862 1.84378 3.64447 1.61115 4.03129C0.983753 5.07302 0.587949 6.2615 0.455521 7.50129C0.371146 8.27339 0.571147 9.20717 0.286771 9.93336C0.266146 9.98817 0.252396 10.0478 0.234271 10.1046C0.0898951 10.4993 -0.468232 12.2545 0.907398 13.0341C1.4124 13.3225 1.9899 13.3239 2.4949 13.6233C2.64178 13.7041 2.77865 13.7952 2.91553 13.8877C3.19928 14.061 3.48428 14.2577 3.78928 14.3954C3.82053 14.4187 3.86303 14.4303 3.90491 14.4536C5.94491 15.3415 8.2693 15.1106 10.2049 14.0268C10.5412 13.8418 10.8349 13.6226 11.1399 13.4267C11.7399 13.0348 12.3081 12.4593 12.3081 12.4593C12.2674 12.4881 12.1956 12.534 12.1487 12.5662L12.3281 12.3887C12.5174 12.1928 12.7074 11.9859 12.8756 11.7667C13.1281 11.444 13.3593 11.0987 13.5693 10.7411C14.1168 9.79566 14.4849 8.72281 14.6949 7.59309C14.7056 7.53554 14.7162 7.48964 14.7162 7.44305C14.728 7.39403 14.7347 7.3437 14.7362 7.29302C14.8518 6.52092 14.8943 5.72621 14.8518 4.90821C14.8624 4.10117 15.1993 3.51268 14.8206 2.73989C14.7444 2.58448 14.6366 2.45039 14.5056 2.34802C14.4843 2.33638 14.4743 2.32473 14.4431 2.31377C14.4318 2.30212 14.4218 2.30281 14.4112 2.29116C14.1693 2.14181 13.8849 2.0596 13.6012 1.9445C13.5387 1.92121 13.4962 1.96848 13.5387 2.01507C14.2118 2.86801 14.2743 3.53529 13.5174 2.53231C11.4981 -0.142289 7.99492 -0.0148614 7.76367 0.0077466H7.76305ZM7.54805 0.73463C8.1818 0.694209 8.61555 0.768884 8.61555 0.768884C8.61555 0.768884 6.93304 0.837393 5.16616 1.9445C3.73616 2.84403 4.27241 1.97876 5.28179 1.39095C6.08117 0.929881 6.91429 0.77505 7.54805 0.73463ZM10.0556 2.58986C10.9287 2.75154 10.1506 5.40285 9.74055 6.0256C9.88805 7.43209 10.3718 6.30238 10.5606 5.69127C10.6237 5.49534 10.6981 5.26515 10.7187 5.06921C10.7924 4.44646 10.9606 3.96279 11.3081 3.7093C11.5081 3.55927 11.7081 3.50172 11.9493 3.61681C12.7381 3.97443 12.4324 6.48735 11.6543 6.77577C11.5431 6.83208 11.4193 6.8516 11.2981 6.83195C10.8768 6.7977 10.7606 6.45173 10.6874 5.90982C10.3612 6.98199 9.77243 7.70955 9.30993 6.40719C9.1943 6.71823 8.10055 8.22817 7.71117 6.4757L7.69992 6.44145C7.5843 6.67164 6.87992 8.0432 5.98617 7.55884C5.92003 7.51485 5.86004 7.46062 5.80804 7.39784C5.71739 7.26877 5.64608 7.12469 5.59679 6.97103C5.55256 6.81345 5.52427 6.65102 5.51241 6.48667C5.50241 6.40582 5.50241 6.31402 5.50241 6.23318C5.50241 6.18728 5.51241 6.15303 5.51241 6.10712C5.38679 6.09548 5.26054 6.09479 5.16616 6.08315H5.10366C5.10366 6.78674 5.10241 7.50129 5.15491 7.9281C5.16554 7.93906 5.15554 7.96235 5.13491 7.96235C4.88241 8.00826 4.57679 8.18158 4.60866 7.47799C4.61929 7.08612 4.62929 6.49831 4.63991 6.10712C4.39803 6.12973 4.16616 6.17563 3.94616 6.23318L3.72491 6.30169C3.71428 6.47502 3.71428 6.63739 3.71428 6.78674C3.69366 7.67461 3.68303 8.82831 3.74553 9.32363C3.74553 9.33528 3.73491 9.34556 3.72491 9.34556C3.46178 9.39146 3.13553 9.5182 3.16678 8.76871C3.16678 8.76871 3.19866 7.33961 3.21991 6.83195C3.21991 6.71686 3.23116 6.61409 3.23116 6.499C3.08366 6.56819 2.99928 6.63601 2.88303 6.70589C2.85178 6.7285 2.82053 6.74015 2.78928 6.76344C2.76803 6.78674 2.73615 6.7977 2.7149 6.82099C2.6624 6.85524 2.5474 6.93609 2.52678 6.94773C2.50553 6.95938 2.49553 6.95938 2.47365 6.94773C2.47365 6.94773 2.42115 6.91348 2.3999 6.83195C2.36865 6.70521 2.36865 6.54421 2.50553 6.45241C2.56803 6.39486 2.6524 6.34965 2.70553 6.31471C2.82053 6.24551 3.02053 6.14138 3.24116 6.04889C3.25178 5.31105 3.24116 4.43413 3.21991 4.19229C3.21991 4.18064 3.21991 4.16968 3.24116 4.15804C3.35678 4.12378 3.81991 3.99704 3.79866 4.4814C3.79866 4.4814 3.76741 5.24185 3.74616 5.89954C3.79866 5.88721 3.87241 5.87625 3.93553 5.8646C4.16678 5.83035 4.41928 5.80637 4.66116 5.81802C4.68241 4.69926 4.66116 3.55927 4.62991 3.22494L4.64991 3.20096C4.76554 3.15506 5.21866 3.02832 5.19741 3.50103C5.1753 4.28099 5.1578 5.0611 5.14491 5.84131V5.8646C5.29179 5.87625 5.43866 5.88721 5.57554 5.89886C5.63804 5.55288 5.76491 5.20691 5.99616 4.89588C6.05866 4.81504 6.34429 4.51565 6.56492 4.45742C6.86992 4.36562 7.06929 4.60814 7.13242 4.76914C7.19554 4.96508 7.20617 5.16101 7.18554 5.35695V5.39257C7.18598 5.39883 7.1852 5.40511 7.18326 5.41102C7.18132 5.41692 7.17826 5.42231 7.17429 5.42683C7.16367 5.45012 7.16429 5.48369 7.15367 5.50698C7.14367 5.56453 7.12242 5.6118 7.10117 5.66935C7.05366 5.77958 6.98552 5.87762 6.90117 5.95709C6.80224 6.04636 6.68787 6.11278 6.56492 6.15234C6.46634 6.18591 6.36265 6.19755 6.25992 6.18659C6.21804 6.18659 6.16492 6.18659 6.12242 6.17563C6.10179 6.17563 6.08116 6.17563 6.05991 6.16467V6.39486C6.07054 6.53257 6.08116 6.74152 6.11304 6.86758C6.16554 7.12106 6.28117 7.2478 6.42804 7.28206C6.98554 7.44374 7.59492 6.34896 7.69992 6.16467C7.46867 4.95411 7.72055 2.39392 8.51992 2.6248C9.28805 2.85499 8.54117 5.56453 8.18367 6.11809C8.30992 7.88151 9.20493 6.22222 9.27868 6.10712C9.18367 5.64606 9.1618 5.06989 9.2143 4.37795C9.28805 3.44417 9.55118 2.48641 10.0556 2.58986ZM10.0987 3.03997C9.8143 2.95981 9.58305 4.37795 9.67805 5.61112C10.0037 4.90821 10.3512 3.12081 10.0987 3.03997ZM8.53117 3.07422C8.24742 2.99406 7.99492 4.53895 8.11055 5.73786C8.42617 5.08086 8.78367 3.14341 8.53117 3.07422ZM11.7387 3.8703C11.6331 3.88194 11.4762 3.95114 11.3706 4.17037C11.0656 4.76982 11.0556 6.20989 11.3818 6.55586C11.4556 6.63602 11.5818 6.57984 11.6343 6.53325C11.6884 6.47162 11.7341 6.40169 11.7699 6.32567C12.0324 5.78445 12.1912 4.53895 11.9493 4.05459C11.9287 4.00869 11.8543 3.8703 11.7387 3.8703ZM6.66929 4.73488C6.64786 4.73341 6.62641 4.73764 6.60679 4.74722C6.55367 4.75818 6.51179 4.80339 6.45929 4.86094C6.40773 4.91892 6.3649 4.98552 6.33242 5.05825C6.2695 5.20302 6.21724 5.35307 6.17617 5.50698C6.13435 5.65427 6.10239 5.80471 6.08054 5.95709H6.09179V5.98038C6.13367 5.98038 6.17554 5.99134 6.18554 5.99134C6.21679 5.99134 6.25992 5.99134 6.29179 5.98038C6.35814 5.95878 6.42161 5.92768 6.48054 5.88789C6.53634 5.85021 6.58341 5.79885 6.61804 5.73786C6.6964 5.62425 6.75353 5.49481 6.78617 5.35695C6.79679 5.27611 6.80679 5.19595 6.81742 5.12676C6.82804 5.05825 6.81679 4.98837 6.80617 4.91917C6.79554 4.84998 6.76492 4.79175 6.73304 4.76845C6.73304 4.76845 6.73304 4.75818 6.72179 4.75818C6.72179 4.74653 6.71179 4.74722 6.71179 4.74722C6.71179 4.74722 6.71179 4.73488 6.70179 4.73488H6.69054H6.66929ZM12.4012 7.25876C12.4643 7.24712 12.5074 7.28206 12.5074 7.35125V10.3725C12.5074 10.4301 12.4643 10.4876 12.4012 10.4993L12.1174 10.5568C12.0549 10.5684 12.0124 10.5335 12.0124 10.4643V9.2195C12.0124 9.19689 11.9918 9.1736 11.9706 9.18524L11.5287 9.26677C11.5074 9.27773 11.4862 9.30102 11.4862 9.32432V10.5684C11.4851 10.5996 11.4741 10.6294 11.455 10.6526C11.4359 10.6758 11.41 10.6909 11.3818 10.6952L11.0968 10.7527C11.0443 10.7644 10.9924 10.7301 10.9924 10.6609V7.64105C10.9924 7.5835 11.0337 7.52595 11.0968 7.5143L11.3818 7.45676C11.4449 7.44511 11.4862 7.47936 11.4862 7.54856V8.75843C11.4862 8.78172 11.5074 8.80433 11.5287 8.79269L11.9706 8.71321C11.9918 8.70157 12.0124 8.67896 12.0124 8.65498V7.44374C12.0124 7.38619 12.0543 7.32864 12.1174 7.31768L12.4012 7.25876ZM10.2731 7.65954C10.5293 7.71572 10.6762 7.95413 10.6762 8.41246V8.51522C10.6762 8.57346 10.6343 8.61936 10.5824 8.63169L10.2981 8.68924C10.2562 8.70088 10.2243 8.66663 10.2243 8.62073V8.52756C10.2243 8.20419 10.1406 8.10074 9.98305 8.135C9.8143 8.16925 9.74055 8.31929 9.74055 8.48028C9.74055 8.73377 9.90868 8.88449 10.1718 9.11536C10.4762 9.3805 10.7081 9.61069 10.6974 10.0375C10.6974 10.5445 10.4031 10.924 9.9718 11.0048C9.5193 11.0857 9.24618 10.798 9.24618 10.3136V10.095C9.24618 10.0375 9.28805 9.97995 9.35118 9.9683L9.60368 9.92172C9.6668 9.91007 9.7093 9.94501 9.7093 10.0135V10.1985C9.7093 10.452 9.79368 10.578 9.98305 10.5438C10.1093 10.5095 10.2456 10.417 10.2456 10.1752C10.2456 9.88678 10.0356 9.71482 9.78305 9.50724C9.53118 9.28801 9.26743 9.0448 9.26743 8.58373C9.26743 8.16857 9.47805 7.76505 9.98305 7.6616C10.0906 7.64105 10.1881 7.64105 10.2731 7.65954ZM8.92055 7.9281C8.97305 7.91645 9.02618 7.95071 9.02618 8.0199V8.26242C9.02618 8.31997 8.98368 8.37752 8.92055 8.38917L8.2793 8.51591C8.25805 8.52687 8.23617 8.55016 8.23617 8.57346V9.35789C8.23617 9.38118 8.25805 9.40379 8.2793 9.39214L8.70992 9.3113C8.77242 9.29965 8.81492 9.33391 8.81492 9.4031V9.63466C8.81361 9.66588 8.80241 9.69562 8.78324 9.71876C8.76407 9.74189 8.73815 9.75698 8.70992 9.76141L8.27867 9.84088C8.25805 9.85252 8.23617 9.87582 8.23617 9.89911V10.787C8.23617 10.8096 8.25805 10.8329 8.2793 10.8212L8.9518 10.6945C9.00492 10.6829 9.0468 10.7288 9.05805 10.787V11.0405C9.05805 11.0973 9.01493 11.1569 8.9518 11.1679L7.85805 11.3741C7.80555 11.3858 7.75305 11.3515 7.75305 11.2823V8.26242C7.75305 8.20488 7.79555 8.14733 7.85805 8.13568L8.92055 7.9281ZM6.88617 8.33778C7.29617 8.35149 7.38492 8.71116 7.38492 9.19552C7.38492 9.70249 7.30117 9.91076 7.06992 10.0834C7.05929 10.095 7.03804 10.1307 7.04867 10.1533L7.38492 11.3289C7.38768 11.3425 7.38797 11.3566 7.38575 11.3704C7.38354 11.3841 7.37888 11.3973 7.37203 11.409C7.36518 11.4208 7.35627 11.431 7.34583 11.439C7.33539 11.447 7.32361 11.4526 7.31117 11.4556L7.03867 11.5132C7.01073 11.5196 6.98163 11.515 6.95648 11.5002C6.93133 11.4854 6.91174 11.4614 6.90117 11.4323L6.60617 10.291C6.59617 10.2684 6.57492 10.2451 6.55367 10.2567L6.45992 10.28C6.43867 10.2917 6.41679 10.315 6.41679 10.3383V11.5372C6.4156 11.5682 6.4045 11.5979 6.38543 11.6209C6.36636 11.6439 6.34052 11.6589 6.31242 11.6632L6.02867 11.7215C5.97616 11.7331 5.92304 11.6982 5.92304 11.629V8.60771C5.92304 8.55016 5.96554 8.49262 6.02929 8.48097L6.69054 8.35423C6.76304 8.3419 6.82804 8.33641 6.88617 8.33778ZM5.53429 8.59675C5.59679 8.5851 5.64991 8.61867 5.63929 8.67691V8.91874C5.63929 8.97629 5.59741 9.03521 5.53429 9.04686L4.88241 9.1736C4.86116 9.18524 4.83991 9.20785 4.83991 9.23115V10.0259C4.83991 10.0485 4.86116 10.0731 4.88241 10.0615L5.33429 9.97995C5.39741 9.9683 5.43991 10.0032 5.43991 10.0724V10.3143C5.43991 10.3725 5.39741 10.4294 5.33429 10.441L4.88241 10.5225C4.86116 10.5342 4.83991 10.5561 4.83991 10.5787V11.8592C4.83991 11.9167 4.79741 11.9743 4.73366 11.9859L4.45053 12.0434C4.38741 12.0551 4.34491 12.0202 4.34491 11.951V8.93176C4.34491 8.87421 4.38741 8.81666 4.45053 8.80502L5.53429 8.59675ZM6.61742 8.82694L6.46929 8.85023C6.44867 8.86188 6.42804 8.88449 6.42804 8.90778V9.82992C6.42804 9.85321 6.44867 9.87582 6.46929 9.86417L6.61742 9.84088C6.84867 9.80662 6.90179 9.69153 6.90179 9.28801C6.90179 8.8838 6.83867 8.792 6.61742 8.82694Z" fill="#AEE537"/>
</svg>
