<svg width="17" height="17" viewBox="0 0 17 17" fill="none" xmlns="http://www.w3.org/2000/svg">
<g clip-path="url(#clip0_139_1867)">
<path d="M8.5 17C13.1944 17 17 13.1944 17 8.5C17 3.80558 13.1944 0 8.5 0C3.80558 0 0 3.80558 0 8.5C0 13.1944 3.80558 17 8.5 17Z" fill="#FF9900"/>
<path d="M4.26575 10.6333C4.29065 10.5918 4.33215 10.5901 4.3886 10.625C5.67688 11.3721 7.07971 11.7473 8.59377 11.7473C9.60481 11.7473 10.6026 11.558 11.587 11.1828L11.6983 11.133C11.7464 11.1114 11.7813 11.0982 11.8029 11.0865C11.8825 11.055 11.9406 11.0699 11.9888 11.133C12.032 11.1944 12.0203 11.2526 11.9456 11.3024C11.8543 11.3704 11.7331 11.4484 11.5887 11.5348C11.1488 11.7987 10.654 12.0013 10.1062 12.1457C9.56331 12.2901 9.02708 12.3615 8.50579 12.3615C7.70393 12.3615 6.94358 12.2204 6.22639 11.9415C5.51086 11.6609 4.87336 11.2642 4.30227 10.7545C4.26741 10.7279 4.24915 10.7014 4.24915 10.6765C4.24915 10.6599 4.25579 10.6449 4.26741 10.63L4.26575 10.6333ZM6.59329 8.43029C6.59329 8.07501 6.68127 7.76954 6.85725 7.5172C7.03323 7.26486 7.27229 7.07394 7.57942 6.94445C7.86165 6.82657 8.20198 6.74025 8.61038 6.68878C8.74817 6.67218 8.97561 6.65226 9.29104 6.62736V6.4962C9.29104 6.16749 9.25452 5.94337 9.18479 5.83214C9.07854 5.67941 8.9092 5.60138 8.67512 5.60138H8.61038C8.44104 5.61798 8.29329 5.67111 8.16877 5.76408C8.04426 5.86036 7.96458 5.98654 7.92971 6.15255C7.90813 6.2588 7.85666 6.31691 7.77532 6.33351L6.88215 6.22228C6.79417 6.2007 6.751 6.15919 6.751 6.08448C6.751 6.06788 6.75266 6.05294 6.7593 6.03136C6.84729 5.57482 7.06145 5.23448 7.40344 5.01036C7.74875 4.79288 8.14719 4.66505 8.6054 4.63849H8.79631C9.38069 4.63849 9.84387 4.79288 10.1742 5.09503C10.2224 5.14816 10.2705 5.20128 10.317 5.26437C10.3602 5.32247 10.3967 5.3756 10.4166 5.42374C10.4432 5.47189 10.4698 5.53995 10.4864 5.62628C10.5079 5.71593 10.5229 5.7757 10.5345 5.80724C10.5445 5.84376 10.5561 5.91349 10.5611 6.02472C10.5644 6.13595 10.5677 6.19904 10.5677 6.22062V8.09161C10.5677 8.22443 10.5893 8.34728 10.6258 8.45851C10.6623 8.56974 10.7005 8.64943 10.737 8.69757L10.918 8.93663C10.9495 8.98478 10.9661 9.02794 10.9661 9.06447C10.9661 9.10763 10.9446 9.14415 10.9031 9.1757C10.4781 9.54757 10.244 9.75011 10.2074 9.78165C10.1493 9.8298 10.0746 9.83478 9.98499 9.79825C9.91526 9.74015 9.85217 9.68038 9.79905 9.62228L9.68948 9.49943C9.6679 9.47286 9.63137 9.42472 9.57659 9.35001L9.47034 9.19562C9.18313 9.50939 8.90256 9.70529 8.62034 9.78497C8.44602 9.8381 8.23352 9.86466 7.97122 9.86466C7.57776 9.86466 7.24905 9.74347 6.99338 9.49777C6.73772 9.25372 6.61155 8.90841 6.61155 8.45685L6.59329 8.43029ZM7.92141 8.27423C7.92141 8.47511 7.97122 8.63615 8.07249 8.75734C8.17376 8.87853 8.31155 8.93829 8.48254 8.93829C8.49915 8.93829 8.52073 8.93663 8.55227 8.93165C8.58381 8.92667 8.60041 8.92335 8.61038 8.92335C8.82786 8.86691 8.99221 8.72745 9.11506 8.50665C9.17317 8.40704 9.21633 8.30079 9.2429 8.18458C9.27444 8.07169 9.28606 7.9754 9.29104 7.9007C9.29602 7.83097 9.29602 7.70978 9.29602 7.54542V7.3545C8.99885 7.3545 8.76975 7.37609 8.61536 7.41759C8.16379 7.54542 7.93469 7.83263 7.93469 8.27921L7.92307 8.27257V8.27423H7.92141ZM11.1687 10.7645C11.1786 10.7429 11.1952 10.7263 11.2152 10.7047C11.343 10.6184 11.4675 10.5586 11.587 10.5271C11.7813 10.4806 11.9739 10.449 12.1581 10.4424C12.2079 10.4374 12.2577 10.4424 12.3042 10.4524C12.535 10.4739 12.6761 10.5121 12.7193 10.5686C12.7408 10.6001 12.7508 10.6499 12.7508 10.7064V10.7595C12.7508 10.9404 12.701 11.1529 12.6031 11.397C12.5051 11.641 12.3673 11.8386 12.193 11.993C12.1664 12.0146 12.1432 12.0245 12.1233 12.0245C12.1133 12.0245 12.1017 12.0245 12.0917 12.0195C12.0602 12.0046 12.0535 11.9764 12.0685 11.9349C12.2594 11.4883 12.354 11.1762 12.354 11.0002C12.354 10.9471 12.3441 10.9039 12.3225 10.879C12.271 10.8209 12.1282 10.7877 11.8892 10.7877C11.8029 10.7877 11.6999 10.7927 11.5804 10.8043C11.4526 10.8209 11.333 10.8359 11.2268 10.8525C11.1952 10.8525 11.1737 10.8475 11.1637 10.8375C11.1537 10.8276 11.1504 10.8209 11.1571 10.8109C11.1571 10.8043 11.1587 10.801 11.1637 10.7894V10.7678L11.1687 10.7645Z" fill="white"/>
</g>
<defs>
<clipPath id="clip0_139_1867">
<rect width="17" height="17" fill="white"/>
</clipPath>
</defs>
</svg>
