<svg width="15" height="15" viewBox="0 0 15 15" fill="none" xmlns="http://www.w3.org/2000/svg">
<path d="M13.7997 0.00134523H1.28435C1.12303 -0.00621033 0.961806 0.0181158 0.809907 0.0729452C0.658007 0.127775 0.518416 0.21202 0.399113 0.320853C0.279819 0.429697 0.183155 0.561 0.114673 0.707237C0.0461897 0.853483 0.00721858 1.01179 0 1.17311V13.7157C0.00944978 14.0533 0.147803 14.3746 0.386644 14.6133C0.625485 14.8522 0.946703 14.9905 1.28435 15H13.7997C14.1279 14.9854 14.4374 14.8427 14.6617 14.6026C14.886 14.3626 15.0073 14.0442 14.9997 13.7157V1.17311C15.0024 1.0161 14.9729 0.860195 14.9132 0.714952C14.8535 0.569718 14.7647 0.438208 14.6523 0.328484C14.54 0.218769 14.4064 0.133165 14.2598 0.0769104C14.1132 0.0206562 13.9566 -0.00505731 13.7997 0.00134523ZM4.68739 12.5065H2.50307V5.82272H4.68739V12.5065ZM3.64679 4.81028C3.49437 4.8156 3.34249 4.78933 3.2007 4.73314C3.05891 4.67695 2.93027 4.59205 2.82287 4.48377C2.71546 4.37549 2.63161 4.24617 2.57658 4.10394C2.52154 3.9617 2.49651 3.80963 2.50307 3.65726C2.49633 3.50324 2.52185 3.34953 2.57802 3.20596C2.63418 3.06239 2.71974 2.93214 2.82919 2.82358C2.93865 2.71501 3.06959 2.63052 3.21361 2.57553C3.35764 2.52053 3.51158 2.49625 3.66554 2.50424C3.81797 2.49894 3.96985 2.52519 4.11163 2.58138C4.25342 2.63757 4.38206 2.72247 4.48946 2.83075C4.59687 2.93903 4.68073 3.06835 4.73576 3.21058C4.7908 3.35282 4.81582 3.50489 4.80926 3.65726C4.816 3.81128 4.79048 3.965 4.73431 4.10856C4.67815 4.25213 4.59259 4.38238 4.48314 4.49094C4.37368 4.59951 4.24275 4.684 4.09872 4.73899C3.95469 4.79399 3.80075 4.81827 3.64679 4.81028ZM12.506 12.5065H10.3123V8.85056C10.3123 7.97877 10.0029 7.37882 9.22479 7.37882C8.98311 7.38089 8.74789 7.45766 8.55158 7.59865C8.35518 7.73963 8.20725 7.9379 8.12794 8.16625C8.067 8.33742 8.0415 8.51919 8.05294 8.70058V12.5065H5.89674V5.82272H8.05294V6.76013C8.24465 6.40794 8.52993 6.11566 8.87736 5.91543C9.22479 5.71529 9.62078 5.61506 10.0216 5.62583C11.4372 5.62583 12.506 6.56327 12.506 8.55996V12.5065Z" fill="#3077D9"/>
</svg>
