<svg width="60" height="15" viewBox="0 0 60 15" fill="none" xmlns="http://www.w3.org/2000/svg">
<path d="M23.6786 8.78571L26.9893 12.8571H24.375L21.4286 9.11786V12.8571H19.2857V2.14286H21.4286V8.44286L24.15 5.35714H26.8821L23.6786 8.78571ZM15.1071 5.14286C14.1547 5.1571 13.2699 5.63756 12.7393 6.42857V5.35714H10.7143V12.8571H12.8571V9.35357C12.8003 8.83952 12.9595 8.32495 13.2967 7.93284C13.634 7.54074 14.1189 7.30635 14.6357 7.28571C15.8786 7.28571 16.0714 8.50714 16.0714 9.35357V12.8571H18.2143V8.88214C18.2143 6.525 17.4321 5.14286 15.15 5.14286H15.1071ZM34.2857 9.27857C34.2939 9.43561 34.2939 9.59296 34.2857 9.75H28.6607V9.825C28.8493 10.7479 29.6803 11.3973 30.6214 11.3571C31.3517 11.3889 32.0635 11.122 32.5929 10.6179L34.0179 11.6893C33.1046 12.6213 31.8396 13.1234 30.5357 13.0714C29.4553 13.1397 28.3983 12.7365 27.638 11.9659C26.8777 11.1953 26.4886 10.133 26.5714 9.05357C26.5492 7.98901 26.9706 6.96313 27.7346 6.22146C28.4986 5.47979 29.5366 5.08909 30.6 5.14286C32.6143 5.14286 34.2857 6.56786 34.2857 9.27857ZM32.2929 8.35714C32.277 7.92824 32.0855 7.52471 31.7634 7.24108C31.4413 6.95745 31.0168 6.81863 30.5893 6.85714C29.6471 6.75528 28.7939 7.41889 28.6607 8.35714H32.2929ZM2.14286 2.14286H0V12.8571H6.42857V10.7143H2.14286V2.14286ZM40.7143 2.14286H42.8571V12.8571H40.8321V12.1071C40.3107 12.7496 39.5159 13.1072 38.6893 13.0714C37.6827 13.0456 36.7314 12.6055 36.0601 11.855C35.3888 11.1046 35.0569 10.1104 35.1429 9.10714C35.0405 8.10209 35.3652 7.1003 36.0377 6.34635C36.7101 5.59241 37.6684 5.1557 38.6786 5.14286C39.4302 5.10995 40.1636 5.38015 40.7143 5.89286V2.14286ZM40.875 9.10714C40.9432 8.60656 40.7913 8.10097 40.4584 7.72089C40.1256 7.34081 39.6445 7.12348 39.1393 7.12499C38.1143 7.19942 37.3376 8.08092 37.3929 9.10714C37.3376 10.1334 38.1143 11.0149 39.1393 11.0893C39.6445 11.0908 40.1256 10.8735 40.4584 10.4934C40.7913 10.1133 40.9432 9.60773 40.875 9.10714ZM8.57143 1.92857C7.85655 1.93875 7.27148 2.50042 7.23214 3.21429C7.23214 3.95395 7.83176 4.55357 8.57143 4.55357C9.3111 4.55357 9.91071 3.95395 9.91071 3.21429C9.87138 2.50042 9.2863 1.93875 8.57143 1.92857ZM7.5 12.8571H9.64286V5.35714H7.5V12.8571ZM60 1.07143V13.9286C60 14.5203 59.5203 15 58.9286 15H46.0714C45.4797 15 45 14.5203 45 13.9286V1.07143C45 0.479695 45.4797 0 46.0714 0H58.9286C59.5203 0 60 0.479695 60 1.07143ZM49.2857 5.35714H47.1429V12.8571H49.2857V5.35714ZM49.5536 3.21429C49.5536 2.47462 48.954 1.875 48.2143 1.875C47.4746 1.875 46.875 2.47462 46.875 3.21429C46.875 3.95395 47.4746 4.55357 48.2143 4.55357C48.954 4.55357 49.5536 3.95395 49.5536 3.21429ZM57.8571 8.88214C57.8571 6.525 57.075 5.14286 54.7929 5.14286C53.8253 5.14298 52.9213 5.62509 52.3821 6.42857V5.35714H50.3571V12.8571H52.5V9.35357C52.4431 8.83952 52.6023 8.32495 52.9396 7.93284C53.2768 7.54074 53.7618 7.30635 54.2786 7.28571C55.5214 7.28571 55.7143 8.50714 55.7143 9.35357V12.8571H57.8571V8.88214Z" fill="#0A66C2"/>
</svg>
