<svg width="8" height="13" viewBox="0 0 8 13" fill="none" xmlns="http://www.w3.org/2000/svg">
<path d="M4.60903 0.0494995L4.60394 2.89814L4.59885 5.74678L4.36486 5.08549V5.08379L4.06134 11.4254C4.35977 12.2664 4.51916 12.7158 4.52085 12.7175C4.52255 12.7192 4.69211 12.7293 4.89728 12.7395C5.51788 12.77 6.28769 12.8362 6.87268 12.9091C7.00833 12.926 7.12363 12.9345 7.13211 12.9277C7.14058 12.9209 7.14228 10.0214 7.14058 6.48268L7.1355 0.0494995H4.60903Z" fill="#B1060F" stroke="#273142" stroke-width="0.0785784"/>
<path d="M0.0393066 0.0410024V6.48096C0.0393066 10.0231 0.0426979 12.9243 0.0477847 12.9294C0.0528716 12.9345 0.271606 12.9124 0.536123 12.8836C0.80064 12.8548 1.1652 12.8175 1.34663 12.8022C1.62471 12.7785 2.45896 12.7259 2.55391 12.7242C2.58274 12.7242 2.58443 12.5801 2.58782 9.99598L2.59291 7.26773L2.79469 7.83746C2.82521 7.92563 2.83538 7.95276 2.8659 8.03924L3.16942 1.69932C3.10499 1.51789 3.1389 1.61284 3.06599 1.40598C2.81843 0.705685 2.60817 0.113914 2.59969 0.0867838L2.58274 0.0393066H0.0393066V0.0410024Z" fill="#B1060F" stroke="#273142" stroke-width="0.0785784"/>
<path d="M4.60903 0.0494995L4.60394 2.89814L4.59885 5.74678L4.36486 5.08549V5.08379L4.06134 11.4254C4.35977 12.2664 4.51916 12.7158 4.52085 12.7175C4.52255 12.7192 4.69211 12.7293 4.89728 12.7395C5.51788 12.77 6.28769 12.8362 6.87268 12.9091C7.00833 12.926 7.12363 12.9345 7.13211 12.9277C7.14058 12.9209 7.14228 10.0214 7.14058 6.48268L7.1355 0.0494995H4.60903Z" fill="#B1060F" stroke="#273142" stroke-width="0.0785784"/>
<path d="M0.0393066 0.0410024V6.48096C0.0393066 10.0231 0.0426979 12.9243 0.0477847 12.9294C0.0528716 12.9345 0.271606 12.9124 0.536123 12.8836C0.80064 12.8548 1.1652 12.8175 1.34663 12.8022C1.62471 12.7785 2.45896 12.7259 2.55391 12.7242C2.58274 12.7242 2.58443 12.5801 2.58782 9.99598L2.59291 7.26773L2.79469 7.83746C2.82521 7.92563 2.83538 7.95276 2.8659 8.03924L3.16942 1.69932C3.10499 1.51789 3.1389 1.61284 3.06599 1.40598C2.81843 0.705685 2.60817 0.113914 2.59969 0.0867838L2.58274 0.0393066H0.0393066V0.0410024Z" fill="#B1060F" stroke="#273142" stroke-width="0.0785784"/>
<path d="M0.0393066 0.0410024V3.65606L2.58613 10.4114C2.58613 10.2571 2.58613 10.1723 2.58782 9.99598L2.59291 7.26773L2.79469 7.83746C3.9138 11.0117 4.51574 12.7141 4.51913 12.7175C4.52083 12.7191 4.69039 12.7293 4.89556 12.7395C5.51616 12.77 6.28597 12.8361 6.87096 12.9091C7.00661 12.926 7.12191 12.9345 7.13039 12.9277C7.13547 12.9226 7.13886 11.5017 7.13886 9.49578L4.60561 2.208L4.60391 2.89812L4.59883 5.74676L4.36483 5.08547C4.13592 4.43944 3.98332 4.00706 3.0626 1.40598C2.81504 0.705685 2.60478 0.113914 2.5963 0.0867838L2.57934 0.0393066H0.0393066V0.0410024Z" fill="url(#paint0_radial_59_212)"/>
<path d="M0.0393066 0.0410024L2.59121 7.27282V7.26943L2.79299 7.83916C3.9138 11.0117 4.51574 12.7141 4.51913 12.7175C4.52083 12.7191 4.69039 12.7293 4.89556 12.7395C5.51616 12.77 6.28597 12.8361 6.87096 12.9091C7.00491 12.926 7.12191 12.9345 7.12869 12.9277L4.59883 5.74507V5.74676L4.36483 5.08547C4.13592 4.43944 3.98332 4.00706 3.0626 1.40598C2.81504 0.705685 2.60478 0.113914 2.5963 0.0867838L2.57934 0.0393066H1.30933L0.0393066 0.0410024Z" fill="#E50914"/>
<defs>
<radialGradient id="paint0_radial_59_212" cx="0" cy="0" r="1" gradientTransform="matrix(0.442144 -0.153112 -5.60808 -16.1965 3.47023 6.40993)" gradientUnits="userSpaceOnUse">
<stop/>
<stop offset="1" stop-opacity="0"/>
</radialGradient>
</defs>
</svg>
