<svg width="42" height="11" viewBox="0 0 42 11" fill="none" xmlns="http://www.w3.org/2000/svg">
<path d="M27.9445 -0.059082V8.01392C28.9584 8.06025 29.9696 8.11625 30.978 8.18232V9.89389C29.384 9.78954 27.7832 9.70987 26.1758 9.65555V-0.059082H27.9445ZM42 -0.0581256L39.6968 5.18628L41.9994 11.0223L41.9968 11.0234C41.3261 10.9294 40.6545 10.8407 39.9809 10.7557L38.6878 7.48014L37.3824 10.4516C36.7638 10.3845 36.1443 10.321 35.5234 10.2615L37.7688 5.15122L35.7125 -0.0581256H37.6259L38.7772 2.85708L40.0574 -0.0581256H42ZM20.1053 9.57072L20.1052 -0.0581566H25.0427V1.6688H21.874V3.90702H24.2716V5.61859H21.874V9.57032L20.1053 9.57072ZM13.5007 1.66895L13.5007 -0.0582466H18.9714V1.66882H17.1204V9.61757C16.53 9.63275 15.9402 9.65073 15.3517 9.67254V1.66895H13.5007ZM7.45403 10.1701V-0.0579569H12.3669V1.669H9.22253V4.00831C9.94491 3.99923 10.972 3.98893 11.611 3.99045V5.70216C10.8111 5.6924 9.90825 5.71294 9.22253 5.71966V8.31094C10.2676 8.23021 11.3158 8.15958 12.3669 8.09995V9.81169C10.7218 9.90476 9.08414 10.0247 7.45403 10.1701ZM3.98434 6.21334L3.98423 -0.0582381H5.75301V10.3315C5.10642 10.3968 4.46105 10.4663 3.8168 10.5397L1.76867 4.76076V10.7872C1.17795 10.8628 0.58843 10.9416 0 11.0238V-0.0581256H1.68092L3.98434 6.21334ZM32.4372 9.99714V-0.0581144H34.206V10.1406C33.6172 10.0891 33.0278 10.0415 32.4372 9.99714Z" fill="#DB202C"/>
</svg>
