<svg width="22" height="14" viewBox="0 0 22 14" fill="none" xmlns="http://www.w3.org/2000/svg">
<path d="M2.08938 5.21748C2.10637 5.21889 2.12619 5.21959 2.14601 5.21959C2.39804 5.21959 2.62104 5.09913 2.7605 4.91354L2.76192 4.91144C2.90138 4.66982 2.98351 4.37989 2.98351 4.07104C2.98351 4.02622 2.98209 3.9814 2.97855 3.93728V3.94288C2.98209 3.90296 2.98351 3.85674 2.98351 3.81052C2.98351 3.50167 2.9028 3.21103 2.76121 2.95821L2.76617 2.96731C2.626 2.77892 2.40299 2.65847 2.15167 2.65847C2.12973 2.65847 2.10778 2.65917 2.08654 2.66127H2.08938C2.08867 2.66127 2.08867 2.66127 2.08796 2.66127C1.79346 2.66127 1.51807 2.74181 1.28374 2.88257L1.29082 2.87837V4.99968C1.51311 5.13625 1.78284 5.21748 2.07239 5.21748C2.07876 5.21748 2.08442 5.21748 2.09079 5.21748H2.08938ZM0.303948 7.67636C0.298285 7.67706 0.291913 7.67706 0.284834 7.67706C0.233862 7.67706 0.18643 7.66025 0.148201 7.63224L0.148909 7.63294C0.11776 7.59652 0.0993533 7.5496 0.0993533 7.49777C0.0993533 7.49007 0.100061 7.48166 0.100769 7.47466V7.47536V2.0968C0.100061 2.0898 0.0993533 2.08209 0.0993533 2.07369C0.0993533 2.02256 0.118468 1.97494 0.149617 1.93852C0.18643 1.91051 0.233154 1.8937 0.284126 1.8937C0.291205 1.8937 0.298285 1.8937 0.305364 1.8944H0.304656H0.892247C0.897911 1.8937 0.90499 1.8937 0.911362 1.8937C1.01685 1.8937 1.10463 1.97004 1.1202 2.07019V2.07159L1.17684 2.28169C1.3425 2.12551 1.5386 2.00015 1.75594 1.91471L1.76797 1.91051C1.97681 1.82437 2.21893 1.77394 2.47308 1.77324C2.49078 1.77254 2.51202 1.77184 2.53326 1.77184C3.01536 1.77184 3.44438 1.99455 3.72189 2.34192L3.72401 2.34542C4.01427 2.7383 4.18842 3.23064 4.18842 3.76289C4.18842 3.80911 4.18701 3.85534 4.18488 3.90086V3.89456C4.18559 3.91346 4.18559 3.93517 4.18559 3.95688C4.18559 4.35677 4.10135 4.73706 3.94985 5.08162L3.95692 5.06341C3.82029 5.37786 3.60862 5.63769 3.34314 5.83028L3.33818 5.83378C3.09536 6.00256 2.79307 6.10341 2.46671 6.10341C2.45751 6.10341 2.4483 6.10341 2.43981 6.10341H2.44122C2.43839 6.10341 2.43556 6.10341 2.43202 6.10341C2.2076 6.10341 1.99168 6.06489 1.79133 5.99416L1.80478 5.99836C1.60727 5.93112 1.43595 5.83238 1.2894 5.70702L1.29153 5.70842V7.47466C1.29223 7.48166 1.29294 7.48937 1.29294 7.49707C1.29294 7.54819 1.27595 7.59512 1.24693 7.63294L1.24763 7.63224C1.21011 7.66025 1.16268 7.67706 1.111 7.67706C1.10321 7.67706 1.09543 7.67636 1.08764 7.67566H1.08835L0.303948 7.67636ZM5.18662 6.01516C5.18096 6.01587 5.17458 6.01587 5.1675 6.01587C5.11512 6.01587 5.06768 5.99766 5.03016 5.96684C4.99972 5.93042 4.98061 5.8828 4.98061 5.83098C4.98061 5.82467 4.98061 5.81907 4.98132 5.81347V5.81417V2.0968C4.98061 2.0905 4.9799 2.08279 4.9799 2.07509C4.9799 2.02326 4.99901 1.97564 5.03016 1.93922C5.06768 1.91121 5.11441 1.8944 5.16538 1.8944C5.17246 1.8944 5.17954 1.8944 5.18662 1.8951H5.18591H5.77279C5.77846 1.8944 5.78554 1.8944 5.79262 1.8944C5.8981 1.8944 5.98518 1.97074 6.00075 2.07089V2.07229L6.10694 2.50719C6.27968 2.3076 6.48286 2.14022 6.71082 2.00996L6.72214 2.00435C6.89913 1.91051 7.10868 1.85588 7.33168 1.85588C7.3338 1.85588 7.33593 1.85588 7.33805 1.85588H7.45274C7.45982 1.85518 7.4676 1.85448 7.4761 1.85448C7.52849 1.85448 7.57663 1.87129 7.61556 1.90001L7.61486 1.8993C7.64671 1.93572 7.66583 1.98264 7.66583 2.03517C7.66583 2.04287 7.66512 2.05058 7.66441 2.05828V2.05758V2.7341C7.66512 2.73971 7.66512 2.74671 7.66512 2.75301C7.66512 2.80414 7.64813 2.85106 7.6191 2.88888L7.61981 2.88818C7.583 2.91899 7.53486 2.9372 7.48247 2.9372C7.47468 2.9372 7.4669 2.9365 7.45982 2.9358H7.46053C7.41144 2.93486 7.36259 2.93206 7.31398 2.92739C7.238 2.92132 7.16201 2.91876 7.08602 2.91969C6.92249 2.92319 6.76533 2.9421 6.61312 2.97502L6.6294 2.97222C6.45667 3.00443 6.30375 3.04995 6.15862 3.11088L6.17349 3.10528V5.81557C6.1742 5.82117 6.1742 5.82678 6.1742 5.83308C6.1742 5.8842 6.15721 5.93113 6.12818 5.96894L6.12889 5.96824C6.09278 5.99906 6.04464 6.01797 5.99296 6.01797C5.98447 6.01797 5.97668 6.01727 5.96889 6.01657H5.9696L5.18662 6.01516ZM8.44315 6.01516C8.43394 6.01657 8.42333 6.01797 8.41271 6.01797C8.31572 6.01797 8.23714 5.94023 8.23714 5.84428C8.23714 5.83308 8.23785 5.82257 8.23997 5.81207V5.81347V2.0968C8.23926 2.0898 8.23855 2.08209 8.23855 2.07369C8.23855 2.02256 8.25767 1.97494 8.28882 1.93852C8.32563 1.91051 8.37306 1.8937 8.42403 1.8937C8.43111 1.8937 8.43819 1.8937 8.44456 1.8944H9.22684C9.23887 1.8916 9.25303 1.8895 9.26719 1.8895C9.35993 1.8895 9.43497 1.96373 9.43497 2.05548C9.43497 2.06949 9.43285 2.08349 9.43002 2.0968V2.0954V5.81207C9.43073 5.81767 9.43073 5.82397 9.43073 5.83098C9.43073 5.8821 9.41374 5.92902 9.38542 5.96684L9.38613 5.96614C9.34931 5.99696 9.30117 6.01516 9.24879 6.01516C9.241 6.01516 9.23321 6.01446 9.22613 6.01376H9.22684L8.44315 6.01516ZM8.83535 1.2571C8.82473 1.2578 8.81269 1.2578 8.80066 1.2578C8.62367 1.2578 8.46155 1.19337 8.33766 1.08762L8.33837 1.08832C8.22227 0.980467 8.15006 0.827794 8.15006 0.658314C8.15006 0.647809 8.15006 0.637304 8.15077 0.627499V0.628899C8.15006 0.619795 8.15006 0.609991 8.15006 0.599486C8.15006 0.430005 8.22227 0.276632 8.33837 0.16878C8.4743 0.0637301 8.64703 0 8.83535 0C9.02366 0 9.19711 0.0637304 9.33445 0.170181L9.33303 0.16878C9.44913 0.276632 9.52134 0.430005 9.52134 0.599486C9.52134 0.609991 9.52134 0.619795 9.52063 0.6303V0.628899C9.52134 0.637303 9.52134 0.647808 9.52134 0.657613C9.52134 0.827094 9.44913 0.979766 9.33303 1.08762C9.20985 1.19337 9.04773 1.2571 8.87074 1.2571C8.85871 1.2571 8.84597 1.2571 8.83393 1.2564H8.83535V1.2571ZM10.6434 6.01516C10.6378 6.01587 10.6314 6.01587 10.6243 6.01587C10.5719 6.01587 10.5245 5.99766 10.487 5.96684C10.4565 5.93042 10.4374 5.8828 10.4374 5.83098C10.4374 5.82467 10.4374 5.81907 10.4381 5.81347V5.81417V2.0968C10.4374 2.0905 10.4367 2.08279 10.4367 2.07509C10.4367 2.02326 10.4558 1.97564 10.487 1.93922C10.5245 1.91121 10.5712 1.8944 10.6222 1.8944C10.6293 1.8944 10.6363 1.8944 10.6434 1.8951H11.2289C11.2346 1.8944 11.2416 1.8944 11.2487 1.8944C11.3542 1.8944 11.4413 1.97074 11.4569 2.07089V2.07229L11.522 2.29009C11.7464 2.13532 12.0034 2.00085 12.2766 1.8986L12.3007 1.8909C12.5117 1.81667 12.7545 1.77394 13.008 1.77394C13.0101 1.77394 13.0122 1.77394 13.0143 1.77394C13.0441 1.77114 13.078 1.76974 13.1127 1.76974C13.5078 1.76974 13.8532 1.97634 14.0465 2.28589L14.0493 2.29079C14.2752 2.13462 14.5336 2.00085 14.809 1.90281L14.8323 1.8958C15.0567 1.81947 15.3158 1.77535 15.5856 1.77535C15.5877 1.77535 15.5891 1.77535 15.5912 1.77535C15.6132 1.77394 15.6387 1.77324 15.6641 1.77324C15.9785 1.77324 16.2638 1.8937 16.4762 2.0912L16.4754 2.0905C16.6708 2.3027 16.7905 2.58563 16.7905 2.89658C16.7905 2.92179 16.7898 2.9477 16.7884 2.97292V2.96941V5.81627C16.7891 5.82187 16.7891 5.82818 16.7891 5.83518C16.7891 5.8856 16.7721 5.93253 16.7438 5.97034L16.7445 5.96964C16.7084 6.00046 16.6602 6.01937 16.6085 6.01937C16.6 6.01937 16.5923 6.01867 16.5845 6.01797H15.8022C15.793 6.01937 15.7824 6.02077 15.771 6.02077C15.6741 6.02077 15.5955 5.94303 15.5955 5.84708C15.5955 5.83658 15.5962 5.82608 15.5983 5.81557V5.81697V3.22854C15.5983 2.86296 15.4319 2.67948 15.1013 2.67948C14.7771 2.68298 14.4713 2.76072 14.2001 2.89518L14.2122 2.88958V5.81697C14.2129 5.82257 14.2129 5.82888 14.2129 5.83588C14.2129 5.8863 14.1959 5.93323 14.1676 5.97104L14.1683 5.97034C14.1322 6.00116 14.084 6.02007 14.0323 6.02007C14.0238 6.02007 14.0161 6.01937 14.0083 6.01867H13.2267C13.221 6.01937 13.2147 6.01937 13.2076 6.01937C13.1552 6.01937 13.1078 6.00116 13.0703 5.97034C13.0398 5.93393 13.0207 5.8863 13.0207 5.83448C13.0207 5.82818 13.0207 5.82257 13.0214 5.81697V5.81767V3.22924C13.0214 2.8632 12.8557 2.68018 12.5244 2.68018C12.1967 2.68228 11.8887 2.76212 11.6176 2.90358L11.6282 2.89868V5.81837C11.6289 5.82397 11.6289 5.83098 11.6289 5.83728C11.6289 5.8877 11.6119 5.93463 11.5829 5.97174L11.5836 5.97104C11.5475 6.00186 11.4993 6.02077 11.4476 6.02077C11.4392 6.02077 11.4314 6.02007 11.4236 6.01937L10.6434 6.01516ZM19.3483 3.60392C19.3731 3.60602 19.4021 3.60672 19.4318 3.60672C19.6222 3.60672 19.8014 3.5591 19.9578 3.47576L19.9521 3.47856C20.0668 3.40012 20.1405 3.27126 20.1405 3.12489C20.1405 3.11438 20.1398 3.10388 20.139 3.09407V3.09547C20.139 2.75698 19.9356 2.58773 19.5288 2.58773C19.0068 2.58773 18.7048 2.90475 18.6226 3.53879C18.8301 3.58011 19.0686 3.60392 19.3129 3.60392C19.3256 3.60392 19.3377 3.60392 19.3504 3.60392H19.3483ZM19.6173 6.13632C19.5769 6.13912 19.5295 6.14052 19.4814 6.14052C18.9334 6.14052 18.4343 5.93042 18.0634 5.58726L18.0648 5.58866C17.725 5.21048 17.5175 4.70904 17.5175 4.15998C17.5175 4.10956 17.5197 4.05913 17.5225 4.00941L17.5218 4.01641C17.519 3.97579 17.5175 3.92887 17.5175 3.88125C17.5175 3.30417 17.7285 2.77612 18.0789 2.36783L18.0761 2.37133C18.4386 2.00155 18.9447 1.77114 19.5061 1.77114C19.5451 1.77114 19.5833 1.77254 19.6215 1.77464H19.6166C19.6484 1.77254 19.6853 1.77114 19.7228 1.77114C20.132 1.77114 20.5079 1.90911 20.8073 2.14022L20.8038 2.13742C21.0672 2.36012 21.2328 2.68928 21.2328 3.05696C21.2328 3.07376 21.2328 3.08987 21.2321 3.10668V3.10458C21.2328 3.12139 21.2335 3.141 21.2335 3.16061C21.2335 3.51708 21.0523 3.83082 20.7755 4.01781L20.7719 4.01991C20.4272 4.21881 20.013 4.33577 19.5713 4.33577C19.5161 4.33577 19.4608 4.33366 19.4063 4.33016L19.4134 4.33086C19.3985 4.33086 19.3808 4.33156 19.3631 4.33156C19.0948 4.33156 18.8336 4.29935 18.5844 4.23842L18.6064 4.24332C18.6085 4.54657 18.7338 4.8197 18.9363 5.01649C19.1458 5.16566 19.4077 5.2546 19.6902 5.2546C19.7249 5.2546 19.7589 5.2532 19.7922 5.2504H19.7879C19.7893 5.2504 19.7914 5.2504 19.7936 5.2504C19.9479 5.2504 20.1001 5.2399 20.2488 5.21959L20.2318 5.22169C20.4859 5.18317 20.7054 5.13555 20.9192 5.07462L20.8803 5.08372C20.8923 5.08162 20.9065 5.08022 20.9206 5.08022C21.0126 5.08022 21.0587 5.14115 21.0587 5.26581V5.63698C21.0594 5.64539 21.0601 5.65519 21.0601 5.6657C21.0601 5.72173 21.0466 5.77425 21.0226 5.82047L21.0233 5.81837C20.9865 5.86109 20.9376 5.89401 20.8824 5.91082L20.8803 5.91152C20.5114 6.05438 20.0838 6.13702 19.6371 6.13702C19.6293 6.13702 19.6222 6.13702 19.6145 6.13702H19.6159L19.6173 6.13632ZM19.1911 10.5449C16.7961 12.1725 13.8341 13.1446 10.6427 13.1446C10.6257 13.1446 10.6087 13.1446 10.5917 13.1446H10.5946C10.5712 13.1446 10.5436 13.1446 10.516 13.1446C6.50056 13.1446 2.8405 11.6402 0.0802389 9.17017L0.0936897 9.18207C-0.123648 8.98808 0.0710356 8.72265 0.332266 8.87323C3.34526 10.6073 6.96284 11.6311 10.8225 11.6311C10.8282 11.6311 10.8339 11.6311 10.8395 11.6311C13.7371 11.6164 16.4889 11.0211 18.9901 9.95734L18.8541 10.0085C19.247 9.84389 19.5762 10.2641 19.1911 10.5449ZM20.1589 9.4531C19.8615 9.07702 18.1929 9.27452 17.4439 9.36276C17.2167 9.39007 17.182 9.19398 17.3866 9.05111C18.0181 8.65192 18.789 8.41451 19.6152 8.41451C20.1681 8.41451 20.6962 8.52096 21.179 8.71355L21.1507 8.70375C21.1698 8.85082 21.1804 9.0217 21.1804 9.19398C21.1804 10.3866 20.6636 11.4603 19.8396 12.2075L19.8368 12.2103C19.6449 12.3679 19.4623 12.2839 19.5472 12.0745C19.8275 11.3811 20.4555 9.82848 20.1574 9.4524L20.1589 9.4531Z" fill="#54C2F6"/>
</svg>
