<svg width="17" height="17" viewBox="0 0 17 17" fill="none" xmlns="http://www.w3.org/2000/svg">
<path fill-rule="evenodd" clip-rule="evenodd" d="M13.515 7.56499C10.795 5.94999 6.2475 5.78 3.655 6.5875C3.23 6.715 2.805 6.46 2.6775 6.0775C2.55 5.6525 2.805 5.2275 3.1875 5.1C6.205 4.2075 11.1775 4.3775 14.3225 6.24751C14.705 6.46 14.8325 6.97 14.62 7.3525C14.4075 7.65 13.8975 7.77749 13.515 7.56499ZM13.43 9.94499C13.2175 10.2425 12.835 10.37 12.5375 10.1575C10.2425 8.755 6.7575 8.33 4.08 9.18C3.74 9.265 3.3575 9.095 3.2725 8.755C3.1875 8.415 3.3575 8.0325 3.6975 7.9475C6.8 7.0125 10.625 7.48 13.26 9.095C13.515 9.2225 13.6425 9.6475 13.43 9.94499ZM12.41 12.2825C12.24 12.5375 11.9425 12.6225 11.6875 12.4525C9.69 11.22 7.1825 10.965 4.2075 11.645C3.91 11.73 3.655 11.5175 3.57 11.2625C3.485 10.965 3.6975 10.71 3.9525 10.625C7.1825 9.9025 9.9875 10.2 12.1975 11.56C12.495 11.6875 12.5375 12.0275 12.41 12.2825ZM8.5 0C3.825 0 0 3.825 0 8.5C0 13.175 3.825 17 8.5 17C13.175 17 17 13.175 17 8.5C17 3.825 13.2175 0 8.5 0Z" fill="#00DA5A"/>
</svg>
